# xmcd
#
# Track frame offsets: 
#        150
#        13430
#        31713
#        44369
#        61484
#        78341
#        91752
#        104745
#        124047
#        139189
#
# Disc length: 2050 seconds
#
# Revision: 0
# Processed by: cddbd v1.5.2PL0 Copyright (c) Steve Scherf et al.
# Submitted via: ExactAudioCopyFreeDBPlugin 1.0
#
DISCID=8208000a
DTITLE=The Perch Creek Family Jugband - Jumping On The Highwire
DYEAR=2014
DGENRE=Blues
TTITLE0=Party On The Farm
TTITLE1=Big Things Calling
TTITLE2=Where You Been
TTITLE3=Mother Of My Mother
TTITLE4=The Great Unknown
TTITLE5=Bitchin' Betty Lou
TTITLE6=Watch 'Em Run
TTITLE7=Something In The Valley
TTITLE8=Why'd You Do That For
TTITLE9=Carper Catinach
EXTD=
EXTT0=
EXTT1=
EXTT2=
EXTT3=
EXTT4=
EXTT5=
EXTT6=
EXTT7=
EXTT8=
EXTT9=
PLAYORDER=
